<svg xmlns="http://www.w3.org/2000/svg" viewBox="0 0 64 64" width="64" height="64" color="#A31F34" role="img" aria-label="atlas monogram">
    <circle cx="32" cy="32" r="26" fill="none" stroke="currentColor" stroke-width="3.8"/>
    <line x1="39.52" y1="21.64" x2="43.76" y2="15.82" stroke="currentColor" stroke-width="2.9" stroke-linecap="round"/>
    <line x1="44.17" y1="35.96" x2="51.02" y2="38.18" stroke="currentColor" stroke-width="2.9" stroke-linecap="round"/>
    <line x1="32.00" y1="44.80" x2="32.00" y2="52.00" stroke="currentColor" stroke-width="2.9" stroke-linecap="round"/>
    <line x1="19.83" y1="35.96" x2="12.98" y2="38.18" stroke="currentColor" stroke-width="2.9" stroke-linecap="round"/>
    <line x1="24.48" y1="21.64" x2="20.24" y2="15.82" stroke="currentColor" stroke-width="2.9" stroke-linecap="round"/>
    <circle cx="43.76" cy="15.82" r="3.8" fill="currentColor"/>
    <circle cx="51.02" cy="38.18" r="3.8" fill="currentColor"/>
    <circle cx="32.00" cy="52.00" r="3.8" fill="currentColor"/>
    <circle cx="12.98" cy="38.18" r="3.8" fill="currentColor"/>
    <circle cx="20.24" cy="15.82" r="3.8" fill="currentColor"/>
    <path fill-rule="evenodd" fill="currentColor" d="M20.1 32 a11.9 11.9 0 1 0 23.8 0 a11.9 11.9 0 1 0 -23.8 0 Z M22.87 38.2H25.83V30.8C25.83 29.03 26.97 28.07 28.31 28.07C29.62 28.07 30.56 28.95 30.56 30.3V38.2H33.44V30.59C33.44 29.11 34.37 28.07 35.87 28.07C37.14 28.07 38.17 28.79 38.17 30.44V38.2H41.14V30.02C41.14 27.1 39.33 25.55 36.98 25.55C35.18 25.55 33.7 26.47 33.04 27.9C32.52 26.48 31.15 25.55 29.47 25.55C27.91 25.55 26.49 26.35 25.74 27.95V25.8H22.87Z"/>
</svg>
