<svg xmlns="http://www.w3.org/2000/svg" viewBox="0 0 64 64" width="64" height="64" color="#A31F34" role="img" aria-label="mTOR komplex">
    <circle cx="32" cy="32" r="24" fill="none" stroke="currentColor" stroke-width="6" stroke-linecap="round" stroke-dasharray="18.70 11.46" transform="rotate(-90 32 32)"/>
    <path fill="currentColor" d="M19.01 35.4H20.16V32.53C20.16 31.84 20.6 31.46 21.13 31.46C21.64 31.46 22 31.8 22 32.33V35.4H23.12V32.44C23.12 31.87 23.48 31.46 24.07 31.46C24.56 31.46 24.96 31.74 24.96 32.38V35.4H26.12V32.22C26.12 31.09 25.41 30.48 24.5 30.48C23.8 30.48 23.22 30.84 22.96 31.4C22.76 30.84 22.23 30.48 21.58 30.48C20.97 30.48 20.42 30.79 20.13 31.42V30.58H19.01Z M26.83 29.64H28.95V35.4H30.16V29.64H32.27V28.6H26.83Z M35.98 35.51C37.8 35.51 39.15 34.13 39.15 32C39.15 29.87 37.8 28.49 35.98 28.49C34.16 28.49 32.81 29.87 32.81 32C32.81 34.12 34.16 35.51 35.98 35.51ZM35.98 34.43C34.87 34.43 34.03 33.56 34.03 32C34.03 30.45 34.87 29.57 35.98 29.57C37.09 29.57 37.93 30.45 37.93 32C37.93 33.56 37.09 34.43 35.98 34.43Z M40.04 35.4H41.25V32.93H42.62C42.63 32.93 42.64 32.93 42.65 32.93L43.93 35.4H45.26L43.84 32.71C44.65 32.38 45.13 31.7 45.13 30.77C45.13 29.44 44.19 28.6 42.7 28.6H40.04ZM41.25 31.93V29.62H42.63C43.44 29.62 43.94 30.06 43.94 30.77C43.94 31.48 43.44 31.93 42.64 31.93Z"/>
</svg>
